ply
format ascii 1.0
comment VCGLIB generated
element vertex 432
property float x
property float y
property float z
property float nx
property float ny
property float nz
property float texture_u
property float texture_v
element face 144
property list uchar int vertex_indices
end_header
0 -1 0 0 -1 0 0.211928 0.215262
0 1 0 0 1 0 0.856166 0.145215
0.5 -1 0 0.9859861 -0.164331 0.02875425 0.143834 0.283357
0.4924039 -1 0.08682409 0.9660136 -0.164331 0.199532 0.143834 0.215262
0.4698463 -1 0.1710101 0.9166893 -0.164331 0.3642472 0.143834 0.145215
0.4330127 -1 0.25 0.8395119 -0.164331 0.5178949 0.215262 0.216643
0.3830222 -1 0.3213938 0.7368264 -0.164331 0.6558066 0.145215 0.284738
0.3213938 -1 0.3830222 0.6117526 -0.164331 0.7737921 0.216643 0.213309
0.25 -1 0.4330127 0.4680912 -0.164331 0.8682661 0.284738 0.283357
0.1710101 -1 0.4698463 0.3102069 -0.164331 0.9363584 0.213309 0.211928
0.08682409 -1 0.4924039 0.1428974 -0.164331 0.9759998 0.215262 0.143834
3.061617e-17 -1 0.5 -0.02875425 -0.164331 0.9859861 0.354785 0.215262
-0.08682409 -1 0.4924039 -0.199532 -0.164331 0.9660136 0.286691 0.213309
-0.1710101 -1 0.4698463 -0.3642472 -0.164331 0.9166893 0.358119 0.216643
-0.25 -1 0.4330127 -0.5178949 -0.164331 0.8395119 0.288072 0.284738
-0.3213938 -1 0.3830222 -0.6558066 -0.164331 0.7368264 0.359500 0.213309
-0.3830222 -1 0.3213938 -0.7737921 -0.164331 0.6117526 0.427595 0.283357
-0.4330127 -1 0.25 -0.8682661 -0.164331 0.4680912 0.356166 0.211928
-0.4698463 -1 0.1710101 -0.9363585 -0.164331 0.3102069 0.426214 0.143834
-0.4924039 -1 0.08682409 -0.9759998 -0.164331 0.1428974 0.429548 0.215262
-0.5 -1 6.123234e-17 -0.9859861 -0.164331 -0.02875425 0.429548 0.145215
-0.4924039 -1 -0.08682409 -0.9660136 -0.164331 -0.199532 0.500977 0.284738
-0.4698463 -1 -0.1710101 -0.9166893 -0.164331 -0.3642472 0.430929 0.284738
-0.4330127 -1 -0.25 -0.8395119 -0.164331 -0.5178949 0.502358 0.213309
-0.3830222 -1 -0.3213938 -0.7368264 -0.164331 -0.6558066 0.570452 0.283357
-0.3213938 -1 -0.3830222 -0.6117526 -0.164331 -0.7737921 0.499023 0.211928
-0.25 -1 -0.4330127 -0.4680912 -0.164331 -0.8682661 0.569071 0.143834
-0.1710101 -1 -0.4698463 -0.3102069 -0.164331 -0.9363584 0.640500 0.215262
-0.08682409 -1 -0.4924039 -0.1428974 -0.164331 -0.9759998 0.572405 0.213309
-9.184851e-17 -1 -0.5 0.02875425 -0.164331 -0.9859861 0.643834 0.216643
0.08682409 -1 -0.4924039 0.199532 -0.164331 -0.9660136 0.641881 0.284738
0.1710101 -1 -0.4698463 0.3642472 -0.164331 -0.9166893 0.645215 0.213309
0.25 -1 -0.4330127 0.5178949 -0.164331 -0.8395119 0.713309 0.283357
0.3213938 -1 -0.3830222 0.6558066 -0.164331 -0.7368264 0.641881 0.211928
0.3830222 -1 -0.3213938 0.7737921 -0.164331 -0.6117526 0.711928 0.143834
0.4330127 -1 -0.25 0.8682661 -0.164331 -0.4680912 0.783357 0.215262
0.4698463 -1 -0.1710101 0.9363585 -0.164331 -0.3102069 0.715262 0.145215
0.4924039 -1 -0.08682409 0.9759998 -0.164331 -0.1428974 0.786691 0.284738
0.5 1 0 0.9859861 0.164331 -0.02875425 0.788072 0.213309
0.4924039 1 0.08682409 0.9759998 0.164331 0.1428974 0.856166 0.213309
0.4698463 1 0.1710101 0.9363585 0.164331 0.3102069 0.788072 0.215262
0.4330127 1 0.25 0.8682661 0.164331 0.4680912 0.784738 0.143834
0.3830222 1 0.3213938 0.7737921 0.164331 0.6117526 0.786691 0.143834
0.3213938 1 0.3830222 0.6558066 0.164331 0.7368264 0.858119 0.215262
0.25 1 0.4330127 0.5178949 0.164331 0.8395119 0.858119 0.213309
0.1710101 1 0.4698463 0.3642472 0.164331 0.9166893 0.929548 0.284738
0.08682409 1 0.4924039 0.199532 0.164331 0.9660136 0.927595 0.284738
3.061617e-17 1 0.5 0.02875425 0.164331 0.9859861 0.999023 0.145215
-0.08682409 1 0.4924039 -0.1428974 0.164331 0.9759998 0.999023 0.215262
-0.1710101 1 0.4698463 -0.3102069 0.164331 0.9363584 0.859500 0.143834
-0.25 1 0.4330127 -0.4680912 0.164331 0.8682661 0.929548 0.143834
-0.3213938 1 0.3830222 -0.6117526 0.164331 0.7737921 0.000977 0.072405
-0.3830222 1 0.3213938 -0.7368264 0.164331 0.6558066 0.000977 0.070452
-0.4330127 1 0.25 -0.8395119 0.164331 0.5178949 0.072405 0.141881
-0.4698463 1 0.1710101 -0.9166893 0.164331 0.3642472 0.070452 0.141881
-0.4924039 1 0.08682409 -0.9660136 0.164331 0.199532 0.141881 0.070452
-0.5 1 6.123234e-17 -0.9859861 0.164331 0.02875425 0.073786 0.072405
-0.4924039 1 -0.08682409 -0.9759998 0.164331 -0.1428974 0.070452 0.000977
-0.4698463 1 -0.1710101 -0.9363585 0.164331 -0.3102069 0.072405 0.069071
-0.4330127 1 -0.25 -0.8682661 0.164331 -0.4680912 0.143834 0.072405
-0.3830222 1 -0.3213938 -0.7737921 0.164331 -0.6117526 0.143834 0.070452
-0.3213938 1 -0.3830222 -0.6558066 0.164331 -0.7368264 0.215262 0.141881
-0.25 1 -0.4330127 -0.5178949 0.164331 -0.8395119 0.213309 0.141881
-0.1710101 1 -0.4698463 -0.3642472 0.164331 -0.9166893 0.284738 0.070452
-0.08682409 1 -0.4924039 -0.199532 0.164331 -0.9660136 0.284738 0.072405
-9.184851e-17 1 -0.5 -0.02875425 0.164331 -0.9859861 0.145215 0.000977
0.08682409 1 -0.4924039 0.1428974 0.164331 -0.9759998 0.215262 0.000977
0.1710101 1 -0.4698463 0.3102069 0.164331 -0.9363584 0.286691 0.140500
0.25 1 -0.4330127 0.4680912 0.164331 -0.8682661 0.286691 0.070452
0.3213938 1 -0.3830222 0.6117526 0.164331 -0.7737921 0.358119 0.141881
0.3830222 1 -0.3213938 0.7368264 0.164331 -0.6558066 0.356166 0.141881
0.4330127 1 -0.25 0.8395119 0.164331 -0.5178949 0.427595 0.070452
0.4698463 1 -0.1710101 0.9166893 0.164331 -0.3642472 0.427595 0.072405
0.4924039 1 -0.08682409 0.9660136 0.164331 -0.199532 0.356166 0.000977
0 -1 0 0 -1 0 0.211928 0.213309
0.4924039 -1 0.08682409 0.9660136 -0.164331 0.199532 0.143834 0.213309
0 -1 0 0 -1 0 0.283357 0.284738
0.4698463 -1 0.1710101 0.9166893 -0.164331 0.3642472 0.215262 0.284738
0 -1 0 0 -1 0 0.213309 0.216643
0.4330127 -1 0.25 0.8395119 -0.164331 0.5178949 0.213309 0.284738
0 -1 0 0 -1 0 0.284738 0.145215
0.3830222 -1 0.3213938 0.7368264 -0.164331 0.6558066 0.284738 0.213309
0 -1 0 0 -1 0 0.216643 0.215262
0.3213938 -1 0.3830222 0.6117526 -0.164331 0.7737921 0.284738 0.215262
0 -1 0 0 -1 0 0.145215 0.143834
0.25 -1 0.4330127 0.4680912 -0.164331 0.8682661 0.213309 0.143834
0 -1 0 0 -1 0 0.283357 0.143834
0.1710101 -1 0.4698463 0.3102069 -0.164331 0.9363584 0.215262 0.211928
0 -1 0 0 -1 0 0.286691 0.283357
0.08682409 -1 0.4924039 0.1428974 -0.164331 0.9759998 0.286691 0.215262
0 -1 0 0 -1 0 0.286691 0.145215
3.061617e-17 -1 0.5 -0.02875425 -0.164331 0.9859861 0.354785 0.213309
0 -1 0 0 -1 0 0.426214 0.284738
-0.08682409 -1 0.4924039 -0.199532 -0.164331 0.9660136 0.358119 0.284738
0 -1 0 0 -1 0 0.356166 0.216643
-0.1710101 -1 0.4698463 -0.3642472 -0.164331 0.9166893 0.356166 0.284738
0 -1 0 0 -1 0 0.427595 0.145215
-0.25 -1 0.4330127 -0.5178949 -0.164331 0.8395119 0.427595 0.213309
0 -1 0 0 -1 0 0.359500 0.215262
-0.3213938 -1 0.3830222 -0.6558066 -0.164331 0.7368264 0.427595 0.215262
0 -1 0 0 -1 0 0.288072 0.143834
-0.3830222 -1 0.3213938 -0.7737921 -0.164331 0.6117526 0.356166 0.143834
0 -1 0 0 -1 0 0.358119 0.211928
-0.4330127 -1 0.25 -0.8682661 -0.164331 0.4680912 0.358119 0.143834
0 -1 0 0 -1 0 0.497642 0.215262
-0.4698463 -1 0.1710101 -0.9363585 -0.164331 0.3102069 0.429548 0.283357
0 -1 0 0 -1 0 0.497642 0.213309
-0.4924039 -1 0.08682409 -0.9759998 -0.164331 0.1428974 0.429548 0.213309
0 -1 0 0 -1 0 0.500977 0.216643
-0.5 -1 6.123234e-17 -0.9859861 -0.164331 -0.02875425 0.569071 0.284738
0 -1 0 0 -1 0 0.499023 0.216643
-0.4924039 -1 -0.08682409 -0.9660136 -0.164331 -0.199532 0.499023 0.284738
0 -1 0 0 -1 0 0.570452 0.145215
-0.4698463 -1 -0.1710101 -0.9166893 -0.164331 -0.3642472 0.570452 0.213309
0 -1 0 0 -1 0 0.502358 0.215262
-0.4330127 -1 -0.25 -0.8395119 -0.164331 -0.5178949 0.570452 0.215262
0 -1 0 0 -1 0 0.430929 0.143834
-0.3830222 -1 -0.3213938 -0.7368264 -0.164331 -0.6558066 0.499023 0.143834
0 -1 0 0 -1 0 0.500977 0.211928
-0.3213938 -1 -0.3830222 -0.6117526 -0.164331 -0.7737921 0.500977 0.143834
0 -1 0 0 -1 0 0.572405 0.283357
-0.25 -1 -0.4330127 -0.4680912 -0.164331 -0.8682661 0.572405 0.215262
0 -1 0 0 -1 0 0.572405 0.145215
-0.1710101 -1 -0.4698463 -0.3102069 -0.164331 -0.9363584 0.640500 0.213309
0 -1 0 0 -1 0 0.711928 0.284738
-0.08682409 -1 -0.4924039 -0.1428974 -0.164331 -0.9759998 0.643834 0.284738
0 -1 0 0 -1 0 0.573786 0.284738
-9.184851e-17 -1 -0.5 0.02875425 -0.164331 -0.9859861 0.641881 0.216643
0 -1 0 0 -1 0 0.713309 0.145215
0.08682409 -1 -0.4924039 0.199532 -0.164331 -0.9660136 0.713309 0.213309
0 -1 0 0 -1 0 0.645215 0.215262
0.1710101 -1 -0.4698463 0.3642472 -0.164331 -0.9166893 0.713309 0.215262
0 -1 0 0 -1 0 0.573786 0.143834
0.25 -1 -0.4330127 0.5178949 -0.164331 -0.8395119 0.641881 0.143834
0 -1 0 0 -1 0 0.643834 0.211928
0.3213938 -1 -0.3830222 0.6558066 -0.164331 -0.7368264 0.643834 0.143834
0 -1 0 0 -1 0 0.715262 0.283357
0.3830222 -1 -0.3213938 0.7737921 -0.164331 -0.6117526 0.715262 0.215262
0 -1 0 0 -1 0 0.783357 0.213309
0.4330127 -1 -0.25 0.8682661 -0.164331 -0.4680912 0.715262 0.213309
0 -1 0 0 -1 0 0.786691 0.216643
0.4698463 -1 -0.1710101 0.9363585 -0.164331 -0.3102069 0.854785 0.284738
0 -1 0 0 -1 0 0.784738 0.216643
0.4924039 -1 -0.08682409 0.9759998 -0.164331 -0.1428974 0.784738 0.284738
0.5 -1 0 0.9859861 -0.164331 0.02875425 0.716643 0.284738
0 1 0 0 1 0 0.856166 0.283357
0.4924039 1 0.08682409 0.9759998 0.164331 0.1428974 0.856166 0.215262
0 1 0 0 1 0 0.716643 0.143834
0.4698463 1 0.1710101 0.9363585 0.164331 0.3102069 0.784738 0.211928
0 1 0 0 1 0 0.786691 0.211928
0.4330127 1 0.25 0.8682661 0.164331 0.4680912 0.854785 0.143834
0 1 0 0 1 0 0.858119 0.283357
0.3830222 1 0.3213938 0.7737921 0.164331 0.6117526 0.926214 0.215262
0 1 0 0 1 0 0.926214 0.213309
0.3213938 1 0.3830222 0.6558066 0.164331 0.7368264 0.858119 0.145215
0 1 0 0 1 0 0.997642 0.284738
0.25 1 0.4330127 0.5178949 0.164331 0.8395119 0.929548 0.216643
0 1 0 0 1 0 0.927595 0.216643
0.1710101 1 0.4698463 0.3642472 0.164331 0.9166893 0.859500 0.284738
0 1 0 0 1 0 0.930929 0.213309
0.08682409 1 0.4924039 0.199532 0.164331 0.9660136 0.999023 0.213309
0 1 0 0 1 0 0.930929 0.215262
3.061617e-17 1 0.5 0.02875425 0.164331 0.9859861 0.999023 0.283357
0 1 0 0 1 0 0.927595 0.211928
-0.08682409 1 0.4924039 -0.1428974 0.164331 0.9759998 0.927595 0.143834
0 1 0 0 1 0 0.929548 0.211928
-0.1710101 1 0.4698463 -0.3102069 0.164331 0.9363584 0.997642 0.143834
0 1 0 0 1 0 0.000977 0.140500
-0.25 1 0.4330127 -0.4680912 0.164331 0.8682661 0.069071 0.072405
0 1 0 0 1 0 0.069071 0.070452
-0.3213938 1 0.3830222 -0.6117526 0.164331 0.7737921 0.000977 0.002358
0 1 0 0 1 0 0.140500 0.141881
-0.3830222 1 0.3213938 -0.7368264 0.164331 0.6558066 0.072405 0.073786
0 1 0 0 1 0 0.070452 0.073786
-0.4330127 1 0.25 -0.8395119 0.164331 0.5178949 0.002358 0.141881
0 1 0 0 1 0 0.141881 0.002358
-0.4698463 1 0.1710101 -0.9166893 0.164331 0.3642472 0.073786 0.070452
0 1 0 0 1 0 0.141881 0.140500
-0.4924039 1 0.08682409 -0.9660136 0.164331 0.199532 0.141881 0.072405
0 1 0 0 1 0 0.002358 0.000977
-0.5 1 6.123234e-17 -0.9859861 0.164331 0.02875425 0.070452 0.069071
0 1 0 0 1 0 0.140500 0.000977
-0.4924039 1 -0.08682409 -0.9759998 0.164331 -0.1428974 0.072405 0.000977
0 1 0 0 1 0 0.143834 0.140500
-0.4698463 1 -0.1710101 -0.9363585 0.164331 -0.3102069 0.211928 0.072405
0 1 0 0 1 0 0.211928 0.070452
-0.4330127 1 -0.25 -0.8682661 0.164331 -0.4680912 0.143834 0.002358
0 1 0 0 1 0 0.283357 0.141881
-0.3830222 1 -0.3213938 -0.7737921 0.164331 -0.6117526 0.215262 0.073786
0 1 0 0 1 0 0.213309 0.073786
-0.3213938 1 -0.3830222 -0.6558066 0.164331 -0.7368264 0.145215 0.141881
0 1 0 0 1 0 0.284738 0.002358
-0.25 1 -0.4330127 -0.5178949 0.164331 -0.8395119 0.216643 0.070452
0 1 0 0 1 0 0.216643 0.072405
-0.1710101 1 -0.4698463 -0.3642472 0.164331 -0.9166893 0.284738 0.140500
0 1 0 0 1 0 0.213309 0.069071
-0.08682409 1 -0.4924039 -0.199532 0.164331 -0.9660136 0.213309 0.000977
0 1 0 0 1 0 0.215262 0.069071
-9.184851e-17 1 -0.5 -0.02875425 0.164331 -0.9859861 0.283357 0.000977
0 1 0 0 1 0 0.354785 0.072405
0.08682409 1 -0.4924039 0.1428974 0.164331 -0.9759998 0.286691 0.072405
0 1 0 0 1 0 0.354785 0.070452
0.1710101 1 -0.4698463 0.3102069 0.164331 -0.9363584 0.286691 0.002358
0 1 0 0 1 0 0.426214 0.141881
0.25 1 -0.4330127 0.4680912 0.164331 -0.8682661 0.358119 0.073786
0 1 0 0 1 0 0.356166 0.073786
0.3213938 1 -0.3830222 0.6117526 0.164331 -0.7737921 0.288072 0.141881
0 1 0 0 1 0 0.427595 0.002358
0.3830222 1 -0.3213938 0.7368264 0.164331 -0.6558066 0.359500 0.070452
0 1 0 0 1 0 0.359500 0.072405
0.4330127 1 -0.25 0.8395119 0.164331 -0.5178949 0.427595 0.140500
0 1 0 0 1 0 0.288072 0.000977
0.4698463 1 -0.1710101 0.9166893 0.164331 -0.3642472 0.356166 0.069071
0 1 0 0 1 0 0.426214 0.000977
0.5 1 0 0.9859861 0.164331 -0.02875425 0.358119 0.069071
0.4924039 1 -0.08682409 0.9660136 0.164331 -0.199532 0.358119 0.000977
0.5 -1 0 0.9859861 -0.164331 0.02875425 0.140500 0.999023
0.5 1 0 0.9859861 0.164331 -0.02875425 0.000977 0.999023
0.4924039 1 0.08682409 0.9759998 0.164331 0.1428974 0.000977 0.859500
0.5 -1 0 0.9859861 -0.164331 0.02875425 0.141881 0.997642
0.4924039 1 0.08682409 0.9759998 0.164331 0.1428974 0.002358 0.858119
0.4924039 -1 0.08682409 0.9660136 -0.164331 0.199532 0.141881 0.858119
0.4924039 -1 0.08682409 0.9660136 -0.164331 0.199532 0.283357 0.999023
0.4924039 1 0.08682409 0.9759998 0.164331 0.1428974 0.143834 0.999023
0.4698463 1 0.1710101 0.9363585 0.164331 0.3102069 0.143834 0.859500
0.4924039 -1 0.08682409 0.9660136 -0.164331 0.199532 0.284738 0.997642
0.4698463 1 0.1710101 0.9363585 0.164331 0.3102069 0.145215 0.858119
0.4698463 -1 0.1710101 0.9166893 -0.164331 0.3642472 0.284738 0.858119
0.4698463 -1 0.1710101 0.9166893 -0.164331 0.3642472 0.426214 0.999023
0.4698463 1 0.1710101 0.9363585 0.164331 0.3102069 0.286691 0.999023
0.4330127 1 0.25 0.8682661 0.164331 0.4680912 0.286691 0.859500
0.4698463 -1 0.1710101 0.9166893 -0.164331 0.3642472 0.427595 0.997642
0.4330127 1 0.25 0.8682661 0.164331 0.4680912 0.288072 0.858119
0.4330127 -1 0.25 0.8395119 -0.164331 0.5178949 0.427595 0.858119
0.4330127 -1 0.25 0.8395119 -0.164331 0.5178949 0.569071 0.999023
0.4330127 1 0.25 0.8682661 0.164331 0.4680912 0.429548 0.999023
0.3830222 1 0.3213938 0.7737921 0.164331 0.6117526 0.429548 0.859500
0.4330127 -1 0.25 0.8395119 -0.164331 0.5178949 0.570452 0.997642
0.3830222 1 0.3213938 0.7737921 0.164331 0.6117526 0.430929 0.858119
0.3830222 -1 0.3213938 0.7368264 -0.164331 0.6558066 0.570452 0.858119
0.3830222 -1 0.3213938 0.7368264 -0.164331 0.6558066 0.711928 0.999023
0.3830222 1 0.3213938 0.7737921 0.164331 0.6117526 0.572405 0.999023
0.3213938 1 0.3830222 0.6558066 0.164331 0.7368264 0.572405 0.859500
0.3830222 -1 0.3213938 0.7368264 -0.164331 0.6558066 0.713309 0.997642
0.3213938 1 0.3830222 0.6558066 0.164331 0.7368264 0.573786 0.858119
0.3213938 -1 0.3830222 0.6117526 -0.164331 0.7737921 0.713309 0.858119
0.3213938 -1 0.3830222 0.6117526 -0.164331 0.7737921 0.854785 0.999023
0.3213938 1 0.3830222 0.6558066 0.164331 0.7368264 0.715262 0.999023
0.25 1 0.4330127 0.5178949 0.164331 0.8395119 0.715262 0.859500
0.3213938 -1 0.3830222 0.6117526 -0.164331 0.7737921 0.856166 0.997642
0.25 1 0.4330127 0.5178949 0.164331 0.8395119 0.716643 0.858119
0.25 -1 0.4330127 0.4680912 -0.164331 0.8682661 0.856166 0.858119
0.25 -1 0.4330127 0.4680912 -0.164331 0.8682661 0.997642 0.999023
0.25 1 0.4330127 0.5178949 0.164331 0.8395119 0.858119 0.999023
0.1710101 1 0.4698463 0.3642472 0.164331 0.9166893 0.858119 0.859500
0.25 -1 0.4330127 0.4680912 -0.164331 0.8682661 0.999023 0.997642
0.1710101 1 0.4698463 0.3642472 0.164331 0.9166893 0.859500 0.858119
0.1710101 -1 0.4698463 0.3102069 -0.164331 0.9363584 0.999023 0.858119
0.1710101 -1 0.4698463 0.3102069 -0.164331 0.9363584 0.140500 0.856166
0.1710101 1 0.4698463 0.3642472 0.164331 0.9166893 0.000977 0.856166
0.08682409 1 0.4924039 0.199532 0.164331 0.9660136 0.000977 0.716643
0.1710101 -1 0.4698463 0.3102069 -0.164331 0.9363584 0.141881 0.854785
0.08682409 1 0.4924039 0.199532 0.164331 0.9660136 0.002358 0.715262
0.08682409 -1 0.4924039 0.1428974 -0.164331 0.9759998 0.141881 0.715262
0.08682409 -1 0.4924039 0.1428974 -0.164331 0.9759998 0.283357 0.856166
0.08682409 1 0.4924039 0.199532 0.164331 0.9660136 0.143834 0.856166
3.061617e-17 1 0.5 0.02875425 0.164331 0.9859861 0.143834 0.716643
0.08682409 -1 0.4924039 0.1428974 -0.164331 0.9759998 0.284738 0.854785
3.061617e-17 1 0.5 0.02875425 0.164331 0.9859861 0.145215 0.715262
3.061617e-17 -1 0.5 -0.02875425 -0.164331 0.9859861 0.284738 0.715262
3.061617e-17 -1 0.5 -0.02875425 -0.164331 0.9859861 0.426214 0.856166
3.061617e-17 1 0.5 0.02875425 0.164331 0.9859861 0.286691 0.856166
-0.08682409 1 0.4924039 -0.1428974 0.164331 0.9759998 0.286691 0.716643
3.061617e-17 -1 0.5 -0.02875425 -0.164331 0.9859861 0.427595 0.854785
-0.08682409 1 0.4924039 -0.1428974 0.164331 0.9759998 0.288072 0.715262
-0.08682409 -1 0.4924039 -0.199532 -0.164331 0.9660136 0.427595 0.715262
-0.08682409 -1 0.4924039 -0.199532 -0.164331 0.9660136 0.569071 0.856166
-0.08682409 1 0.4924039 -0.1428974 0.164331 0.9759998 0.429548 0.856166
-0.1710101 1 0.4698463 -0.3102069 0.164331 0.9363584 0.429548 0.716643
-0.08682409 -1 0.4924039 -0.199532 -0.164331 0.9660136 0.570452 0.854785
-0.1710101 1 0.4698463 -0.3102069 0.164331 0.9363584 0.430929 0.715262
-0.1710101 -1 0.4698463 -0.3642472 -0.164331 0.9166893 0.570452 0.715262
-0.1710101 -1 0.4698463 -0.3642472 -0.164331 0.9166893 0.711928 0.856166
-0.1710101 1 0.4698463 -0.3102069 0.164331 0.9363584 0.572405 0.856166
-0.25 1 0.4330127 -0.4680912 0.164331 0.8682661 0.572405 0.716643
-0.1710101 -1 0.4698463 -0.3642472 -0.164331 0.9166893 0.713309 0.854785
-0.25 1 0.4330127 -0.4680912 0.164331 0.8682661 0.573786 0.715262
-0.25 -1 0.4330127 -0.5178949 -0.164331 0.8395119 0.713309 0.715262
-0.25 -1 0.4330127 -0.5178949 -0.164331 0.8395119 0.854785 0.856166
-0.25 1 0.4330127 -0.4680912 0.164331 0.8682661 0.715262 0.856166
-0.3213938 1 0.3830222 -0.6117526 0.164331 0.7737921 0.715262 0.716643
-0.25 -1 0.4330127 -0.5178949 -0.164331 0.8395119 0.856166 0.854785
-0.3213938 1 0.3830222 -0.6117526 0.164331 0.7737921 0.716643 0.715262
-0.3213938 -1 0.3830222 -0.6558066 -0.164331 0.7368264 0.856166 0.715262
-0.3213938 -1 0.3830222 -0.6558066 -0.164331 0.7368264 0.997642 0.856166
-0.3213938 1 0.3830222 -0.6117526 0.164331 0.7737921 0.858119 0.856166
-0.3830222 1 0.3213938 -0.7368264 0.164331 0.6558066 0.858119 0.716643
-0.3213938 -1 0.3830222 -0.6558066 -0.164331 0.7368264 0.999023 0.854785
-0.3830222 1 0.3213938 -0.7368264 0.164331 0.6558066 0.859500 0.715262
-0.3830222 -1 0.3213938 -0.7737921 -0.164331 0.6117526 0.999023 0.715262
-0.3830222 -1 0.3213938 -0.7737921 -0.164331 0.6117526 0.140500 0.713309
-0.3830222 1 0.3213938 -0.7368264 0.164331 0.6558066 0.000977 0.713309
-0.4330127 1 0.25 -0.8395119 0.164331 0.5178949 0.000977 0.573786
-0.3830222 -1 0.3213938 -0.7737921 -0.164331 0.6117526 0.141881 0.711928
-0.4330127 1 0.25 -0.8395119 0.164331 0.5178949 0.002358 0.572405
-0.4330127 -1 0.25 -0.8682661 -0.164331 0.4680912 0.141881 0.572405
-0.4330127 -1 0.25 -0.8682661 -0.164331 0.4680912 0.283357 0.713309
-0.4330127 1 0.25 -0.8395119 0.164331 0.5178949 0.143834 0.713309
-0.4698463 1 0.1710101 -0.9166893 0.164331 0.3642472 0.143834 0.573786
-0.4330127 -1 0.25 -0.8682661 -0.164331 0.4680912 0.284738 0.711928
-0.4698463 1 0.1710101 -0.9166893 0.164331 0.3642472 0.145215 0.572405
-0.4698463 -1 0.1710101 -0.9363585 -0.164331 0.3102069 0.284738 0.572405
-0.4698463 -1 0.1710101 -0.9363585 -0.164331 0.3102069 0.426214 0.713309
-0.4698463 1 0.1710101 -0.9166893 0.164331 0.3642472 0.286691 0.713309
-0.4924039 1 0.08682409 -0.9660136 0.164331 0.199532 0.286691 0.573786
-0.4698463 -1 0.1710101 -0.9363585 -0.164331 0.3102069 0.427595 0.711928
-0.4924039 1 0.08682409 -0.9660136 0.164331 0.199532 0.288072 0.572405
-0.4924039 -1 0.08682409 -0.9759998 -0.164331 0.1428974 0.427595 0.572405
-0.4924039 -1 0.08682409 -0.9759998 -0.164331 0.1428974 0.569071 0.713309
-0.4924039 1 0.08682409 -0.9660136 0.164331 0.199532 0.429548 0.713309
-0.5 1 6.123234e-17 -0.9859861 0.164331 0.02875425 0.429548 0.573786
-0.4924039 -1 0.08682409 -0.9759998 -0.164331 0.1428974 0.570452 0.711928
-0.5 1 6.123234e-17 -0.9859861 0.164331 0.02875425 0.430929 0.572405
-0.5 -1 6.123234e-17 -0.9859861 -0.164331 -0.02875425 0.570452 0.572405
-0.5 -1 6.123234e-17 -0.9859861 -0.164331 -0.02875425 0.711928 0.713309
-0.5 1 6.123234e-17 -0.9859861 0.164331 0.02875425 0.572405 0.713309
-0.4924039 1 -0.08682409 -0.9759998 0.164331 -0.1428974 0.572405 0.573786
-0.5 -1 6.123234e-17 -0.9859861 -0.164331 -0.02875425 0.713309 0.711928
-0.4924039 1 -0.08682409 -0.9759998 0.164331 -0.1428974 0.573786 0.572405
-0.4924039 -1 -0.08682409 -0.9660136 -0.164331 -0.199532 0.713309 0.572405
-0.4924039 -1 -0.08682409 -0.9660136 -0.164331 -0.199532 0.854785 0.713309
-0.4924039 1 -0.08682409 -0.9759998 0.164331 -0.1428974 0.715262 0.713309
-0.4698463 1 -0.1710101 -0.9363585 0.164331 -0.3102069 0.715262 0.573786
-0.4924039 -1 -0.08682409 -0.9660136 -0.164331 -0.199532 0.856166 0.711928
-0.4698463 1 -0.1710101 -0.9363585 0.164331 -0.3102069 0.716643 0.572405
-0.4698463 -1 -0.1710101 -0.9166893 -0.164331 -0.3642472 0.856166 0.572405
-0.4698463 -1 -0.1710101 -0.9166893 -0.164331 -0.3642472 0.997642 0.713309
-0.4698463 1 -0.1710101 -0.9363585 0.164331 -0.3102069 0.858119 0.713309
-0.4330127 1 -0.25 -0.8682661 0.164331 -0.4680912 0.858119 0.573786
-0.4698463 -1 -0.1710101 -0.9166893 -0.164331 -0.3642472 0.999023 0.711928
-0.4330127 1 -0.25 -0.8682661 0.164331 -0.4680912 0.859500 0.572405
-0.4330127 -1 -0.25 -0.8395119 -0.164331 -0.5178949 0.999023 0.572405
-0.4330127 -1 -0.25 -0.8395119 -0.164331 -0.5178949 0.140500 0.570452
-0.4330127 1 -0.25 -0.8682661 0.164331 -0.4680912 0.000977 0.570452
-0.3830222 1 -0.3213938 -0.7737921 0.164331 -0.6117526 0.000977 0.430929
-0.4330127 -1 -0.25 -0.8395119 -0.164331 -0.5178949 0.141881 0.569071
-0.3830222 1 -0.3213938 -0.7737921 0.164331 -0.6117526 0.002358 0.429548
-0.3830222 -1 -0.3213938 -0.7368264 -0.164331 -0.6558066 0.141881 0.429548
-0.3830222 -1 -0.3213938 -0.7368264 -0.164331 -0.6558066 0.283357 0.570452
-0.3830222 1 -0.3213938 -0.7737921 0.164331 -0.6117526 0.143834 0.570452
-0.3213938 1 -0.3830222 -0.6558066 0.164331 -0.7368264 0.143834 0.430929
-0.3830222 -1 -0.3213938 -0.7368264 -0.164331 -0.6558066 0.284738 0.569071
-0.3213938 1 -0.3830222 -0.6558066 0.164331 -0.7368264 0.145215 0.429548
-0.3213938 -1 -0.3830222 -0.6117526 -0.164331 -0.7737921 0.284738 0.429548
-0.3213938 -1 -0.3830222 -0.6117526 -0.164331 -0.7737921 0.426214 0.570452
-0.3213938 1 -0.3830222 -0.6558066 0.164331 -0.7368264 0.286691 0.570452
-0.25 1 -0.4330127 -0.5178949 0.164331 -0.8395119 0.286691 0.430929
-0.3213938 -1 -0.3830222 -0.6117526 -0.164331 -0.7737921 0.427595 0.569071
-0.25 1 -0.4330127 -0.5178949 0.164331 -0.8395119 0.288072 0.429548
-0.25 -1 -0.4330127 -0.4680912 -0.164331 -0.8682661 0.427595 0.429548
-0.25 -1 -0.4330127 -0.4680912 -0.164331 -0.8682661 0.569071 0.570452
-0.25 1 -0.4330127 -0.5178949 0.164331 -0.8395119 0.429548 0.570452
-0.1710101 1 -0.4698463 -0.3642472 0.164331 -0.9166893 0.429548 0.430929
-0.25 -1 -0.4330127 -0.4680912 -0.164331 -0.8682661 0.570452 0.569071
-0.1710101 1 -0.4698463 -0.3642472 0.164331 -0.9166893 0.430929 0.429548
-0.1710101 -1 -0.4698463 -0.3102069 -0.164331 -0.9363584 0.570452 0.429548
-0.1710101 -1 -0.4698463 -0.3102069 -0.164331 -0.9363584 0.711928 0.570452
-0.1710101 1 -0.4698463 -0.3642472 0.164331 -0.9166893 0.572405 0.570452
-0.08682409 1 -0.4924039 -0.199532 0.164331 -0.9660136 0.572405 0.430929
-0.1710101 -1 -0.4698463 -0.3102069 -0.164331 -0.9363584 0.713309 0.569071
-0.08682409 1 -0.4924039 -0.199532 0.164331 -0.9660136 0.573786 0.429548
-0.08682409 -1 -0.4924039 -0.1428974 -0.164331 -0.9759998 0.713309 0.429548
-0.08682409 -1 -0.4924039 -0.1428974 -0.164331 -0.9759998 0.854785 0.570452
-0.08682409 1 -0.4924039 -0.199532 0.164331 -0.9660136 0.715262 0.570452
-9.184851e-17 1 -0.5 -0.02875425 0.164331 -0.9859861 0.715262 0.430929
-0.08682409 -1 -0.4924039 -0.1428974 -0.164331 -0.9759998 0.856166 0.569071
-9.184851e-17 1 -0.5 -0.02875425 0.164331 -0.9859861 0.716643 0.429548
-9.184851e-17 -1 -0.5 0.02875425 -0.164331 -0.9859861 0.856166 0.429548
-9.184851e-17 -1 -0.5 0.02875425 -0.164331 -0.9859861 0.997642 0.570452
-9.184851e-17 1 -0.5 -0.02875425 0.164331 -0.9859861 0.858119 0.570452
0.08682409 1 -0.4924039 0.1428974 0.164331 -0.9759998 0.858119 0.430929
-9.184851e-17 -1 -0.5 0.02875425 -0.164331 -0.9859861 0.999023 0.569071
0.08682409 1 -0.4924039 0.1428974 0.164331 -0.9759998 0.859500 0.429548
0.08682409 -1 -0.4924039 0.199532 -0.164331 -0.9660136 0.999023 0.429548
0.08682409 -1 -0.4924039 0.199532 -0.164331 -0.9660136 0.140500 0.427595
0.08682409 1 -0.4924039 0.1428974 0.164331 -0.9759998 0.000977 0.427595
0.1710101 1 -0.4698463 0.3102069 0.164331 -0.9363584 0.000977 0.288072
0.08682409 -1 -0.4924039 0.199532 -0.164331 -0.9660136 0.141881 0.426214
0.1710101 1 -0.4698463 0.3102069 0.164331 -0.9363584 0.002358 0.286691
0.1710101 -1 -0.4698463 0.3642472 -0.164331 -0.9166893 0.141881 0.286691
0.1710101 -1 -0.4698463 0.3642472 -0.164331 -0.9166893 0.283357 0.427595
0.1710101 1 -0.4698463 0.3102069 0.164331 -0.9363584 0.143834 0.427595
0.25 1 -0.4330127 0.4680912 0.164331 -0.8682661 0.143834 0.288072
0.1710101 -1 -0.4698463 0.3642472 -0.164331 -0.9166893 0.284738 0.426214
0.25 1 -0.4330127 0.4680912 0.164331 -0.8682661 0.145215 0.286691
0.25 -1 -0.4330127 0.5178949 -0.164331 -0.8395119 0.284738 0.286691
0.25 -1 -0.4330127 0.5178949 -0.164331 -0.8395119 0.426214 0.427595
0.25 1 -0.4330127 0.4680912 0.164331 -0.8682661 0.286691 0.427595
0.3213938 1 -0.3830222 0.6117526 0.164331 -0.7737921 0.286691 0.288072
0.25 -1 -0.4330127 0.5178949 -0.164331 -0.8395119 0.427595 0.426214
0.3213938 1 -0.3830222 0.6117526 0.164331 -0.7737921 0.288072 0.286691
0.3213938 -1 -0.3830222 0.6558066 -0.164331 -0.7368264 0.427595 0.286691
0.3213938 -1 -0.3830222 0.6558066 -0.164331 -0.7368264 0.569071 0.427595
0.3213938 1 -0.3830222 0.6117526 0.164331 -0.7737921 0.429548 0.427595
0.3830222 1 -0.3213938 0.7368264 0.164331 -0.6558066 0.429548 0.288072
0.3213938 -1 -0.3830222 0.6558066 -0.164331 -0.7368264 0.570452 0.426214
0.3830222 1 -0.3213938 0.7368264 0.164331 -0.6558066 0.430929 0.286691
0.3830222 -1 -0.3213938 0.7737921 -0.164331 -0.6117526 0.570452 0.286691
0.3830222 -1 -0.3213938 0.7737921 -0.164331 -0.6117526 0.711928 0.427595
0.3830222 1 -0.3213938 0.7368264 0.164331 -0.6558066 0.572405 0.427595
0.4330127 1 -0.25 0.8395119 0.164331 -0.5178949 0.572405 0.288072
0.3830222 -1 -0.3213938 0.7737921 -0.164331 -0.6117526 0.713309 0.426214
0.4330127 1 -0.25 0.8395119 0.164331 -0.5178949 0.573786 0.286691
0.4330127 -1 -0.25 0.8682661 -0.164331 -0.4680912 0.713309 0.286691
0.4330127 -1 -0.25 0.8682661 -0.164331 -0.4680912 0.854785 0.427595
0.4330127 1 -0.25 0.8395119 0.164331 -0.5178949 0.715262 0.427595
0.4698463 1 -0.1710101 0.9166893 0.164331 -0.3642472 0.715262 0.288072
0.4330127 -1 -0.25 0.8682661 -0.164331 -0.4680912 0.856166 0.426214
0.4698463 1 -0.1710101 0.9166893 0.164331 -0.3642472 0.716643 0.286691
0.4698463 -1 -0.1710101 0.9363585 -0.164331 -0.3102069 0.856166 0.286691
0.4698463 -1 -0.1710101 0.9363585 -0.164331 -0.3102069 0.997642 0.427595
0.4698463 1 -0.1710101 0.9166893 0.164331 -0.3642472 0.858119 0.427595
0.4924039 1 -0.08682409 0.9660136 0.164331 -0.199532 0.858119 0.288072
0.4698463 -1 -0.1710101 0.9363585 -0.164331 -0.3102069 0.999023 0.426214
0.4924039 1 -0.08682409 0.9660136 0.164331 -0.199532 0.859500 0.286691
0.4924039 -1 -0.08682409 0.9759998 -0.164331 -0.1428974 0.999023 0.286691
0.4924039 -1 -0.08682409 0.9759998 -0.164331 -0.1428974 0.140500 0.284738
0.4924039 1 -0.08682409 0.9660136 0.164331 -0.199532 0.000977 0.284738
0.5 1 0 0.9859861 0.164331 -0.02875425 0.000977 0.145215
0.4924039 -1 -0.08682409 0.9759998 -0.164331 -0.1428974 0.141881 0.283357
0.5 1 0 0.9859861 0.164331 -0.02875425 0.002358 0.143834
0.5 -1 0 0.9859861 -0.164331 0.02875425 0.141881 0.143834
3 0 2 3 
3 74 75 4 
3 76 77 5 
3 78 79 6 
3 80 81 7 
3 82 83 8 
3 84 85 9 
3 86 87 10 
3 88 89 11 
3 90 91 12 
3 92 93 13 
3 94 95 14 
3 96 97 15 
3 98 99 16 
3 100 101 17 
3 102 103 18 
3 104 105 19 
3 106 107 20 
3 108 109 21 
3 110 111 22 
3 112 113 23 
3 114 115 24 
3 116 117 25 
3 118 119 26 
3 120 121 27 
3 122 123 28 
3 124 125 29 
3 126 127 30 
3 128 129 31 
3 130 131 32 
3 132 133 33 
3 134 135 34 
3 136 137 35 
3 138 139 36 
3 140 141 37 
3 142 143 144 
3 1 39 38 
3 145 40 146 
3 147 41 148 
3 149 42 150 
3 151 43 152 
3 153 44 154 
3 155 45 156 
3 157 46 158 
3 159 47 160 
3 161 48 162 
3 163 49 164 
3 165 50 166 
3 167 51 168 
3 169 52 170 
3 171 53 172 
3 173 54 174 
3 175 55 176 
3 177 56 178 
3 179 57 180 
3 181 58 182 
3 183 59 184 
3 185 60 186 
3 187 61 188 
3 189 62 190 
3 191 63 192 
3 193 64 194 
3 195 65 196 
3 197 66 198 
3 199 67 200 
3 201 68 202 
3 203 69 204 
3 205 70 206 
3 207 71 208 
3 209 72 210 
3 211 73 212 
3 213 214 215 
3 216 217 218 
3 219 220 221 
3 222 223 224 
3 225 226 227 
3 228 229 230 
3 231 232 233 
3 234 235 236 
3 237 238 239 
3 240 241 242 
3 243 244 245 
3 246 247 248 
3 249 250 251 
3 252 253 254 
3 255 256 257 
3 258 259 260 
3 261 262 263 
3 264 265 266 
3 267 268 269 
3 270 271 272 
3 273 274 275 
3 276 277 278 
3 279 280 281 
3 282 283 284 
3 285 286 287 
3 288 289 290 
3 291 292 293 
3 294 295 296 
3 297 298 299 
3 300 301 302 
3 303 304 305 
3 306 307 308 
3 309 310 311 
3 312 313 314 
3 315 316 317 
3 318 319 320 
3 321 322 323 
3 324 325 326 
3 327 328 329 
3 330 331 332 
3 333 334 335 
3 336 337 338 
3 339 340 341 
3 342 343 344 
3 345 346 347 
3 348 349 350 
3 351 352 353 
3 354 355 356 
3 357 358 359 
3 360 361 362 
3 363 364 365 
3 366 367 368 
3 369 370 371 
3 372 373 374 
3 375 376 377 
3 378 379 380 
3 381 382 383 
3 384 385 386 
3 387 388 389 
3 390 391 392 
3 393 394 395 
3 396 397 398 
3 399 400 401 
3 402 403 404 
3 405 406 407 
3 408 409 410 
3 411 412 413 
3 414 415 416 
3 417 418 419 
3 420 421 422 
3 423 424 425 
3 426 427 428 
3 429 430 431 
