ply
format ascii 1.0
comment VCGLIB generated
element vertex 45
property float x
property float y
property float z
property float nx
property float ny
property float nz
property float texture_u
property float texture_v
element face 68
property list uchar int vertex_indices
end_header
6.024275 -3.056525 -0.06087495 0.01436863 -0.001901644 0.06079619 0.612900 0.211700
6.164625 -0.06834985 -0.06087495 0.01662569 0.0002989355 0.06024738 0.622700 0.500000
4.1379 -0.0706501 0.2016754 0.003441911 0.0008827928 0.06239891 0.490500 0.500000
3.86095 -3.4625 0.2016754 0.002985561 -0.003635124 0.06232272 0.483000 0.207700
6.024775 2.919 -0.06087495 0.01290919 0.002250362 0.06111087 0.632400 0.788300
3.86095 3.3211 0.2016754 0.002149331 0.005456455 0.06222425 0.498000 0.792300
5.832575 -5.279775 -0.201675 0.007295314 -0.01994288 0.05878188 0.618900 0.025500
5.549675 -4.957725 -0.06087495 0.009646687 -0.01067094 0.06082206 0.602600 0.064200
3.40165 -5.361675 -0.06087495 0.001903925 -0.01604537 0.06037525 0.478900 0.054200
3.314175 -5.723425 -0.201675 0.001792018 -0.02317849 0.05801548 0.478100 0.024900
5.54605 4.814475 -0.06087495 0.009860995 0.01025018 0.06086004 0.632300 0.934800
3.3943 5.339225 -0.06087495 0.003579726 0.01454825 0.0606777 0.502100 0.945000
3.3054 5.723625 -0.201675 0.003526612 0.02186931 0.05844267 0.502800 0.974000
-0.2040748 5.806525 -0.201675 -1.31235e-07 0.02215381 0.05844193 0.341000 0.974600
-0.2075999 5.4456 -0.06087495 0.0006235164 0.01775319 0.05992233 0.340500 0.946200
-0.2261498 3.550825 0.2016754 -9.984495e-05 0.00716081 0.06208835 0.337900 0.797100
-0.2283998 -0.07094955 0.2016754 -7.603621e-05 0.001354161 0.06248528 0.333100 0.500000
-0.2259998 -3.6922 0.2016754 -7.989437e-08 -0.005092513 0.06229218 0.328300 0.202900
-0.2075748 -5.468225 -0.06087495 -1.240294e-07 -0.01867994 0.05964319 0.325700 0.052900
-5.769925 5.14915 -0.201675 -0.01109212 0.01839625 0.05869235 0.062900 0.975700
-5.578 4.816025 -0.06087495 -0.01201413 0.01106638 0.06032782 0.076300 0.939100
-3.807775 5.339275 -0.06087495 -0.002765593 0.015367 0.06051823 0.179000 0.947500
-3.710625 5.7237 -0.201675 -0.002497032 0.02212344 0.05840007 0.179300 0.975200
-6.08885 2.916375 -0.06087495 -0.01655937 0.004024337 0.06013187 0.071400 0.805000
-6.2377 -0.06837463 -0.06087495 -0.01997124 -5.41899e-08 0.0592233 0.071100 0.500000
-4.594675 -0.07057475 0.2016754 -0.004145762 0.0003695399 0.06236125 0.175700 0.500000
-4.317725 3.3211 0.2016754 -0.003824107 0.005073238 0.06217627 0.177900 0.801800
-6.088825 -3.053975 -0.06087495 -0.01569132 -0.002858295 0.06043064 0.070700 0.195000
-4.317725 -3.4625 0.2016754 -0.002459925 -0.00413157 0.06231476 0.173600 0.198200
-5.5831 -4.95775 -0.06087495 -0.01115706 -0.01179456 0.06035443 0.075400 0.060100
-3.816325 -5.3617 -0.06087495 -0.003022612 -0.01567912 0.06042581 0.172500 0.051700
-5.8662 5.0524 -0.201675 -0.0216545 0.009234876 0.05789689 0.051100 0.954800
-6.426225 2.8393 -0.201675 -0.02471006 0.002872556 0.05733595 0.051100 0.805600
5.9101 -5.2053 -0.201675 0.01818218 -0.006754373 0.05941411 0.631800 0.048400
6.43635 -2.9792 -0.201675 0.02104962 -0.0004145919 0.05884719 0.637600 0.212500
6.550675 -0.0679245 -0.201675 0.02091081 0.0008484244 0.058892 0.647800 0.500000
6.436925 2.8424 -0.201675 0.02038274 0.002285404 0.05903872 0.658000 0.787500
5.823125 5.14315 -0.201675 0.007877689 0.01875106 0.05909813 0.651900 0.973500
-0.2040748 -5.806525 -0.201675 -1.575174e-07 -0.02339468 0.05795635 0.325200 0.024400
-6.550675 -0.06795025 -0.201675 -0.02495069 -6.769206e-08 0.05730369 0.051100 0.500000
-6.426175 -2.97615 -0.201675 -0.02474714 -0.002862439 0.05732046 0.051100 0.194400
-5.78185 -5.2828 -0.201675 -0.007996064 -0.02107763 0.05829276 0.062300 0.023400
-3.720825 -5.72345 -0.201675 -0.002106325 -0.02327219 0.05796739 0.172200 0.023800
5.91095 5.0547 -0.201675 0.01675837 0.009259 0.05949519 0.663800 0.950500
-5.8664 -5.20235 -0.201675 -0.01957405 -0.0110085 0.05832597 0.051100 0.044200
3 0 1 2 
3 0 2 3 
3 2 1 4 
3 2 4 5 
3 6 7 8 
3 6 8 9 
3 5 10 11 
3 12 13 14 
3 12 14 11 
3 15 16 2 
3 15 2 5 
3 16 17 3 
3 16 3 2 
3 17 18 8 
3 17 8 3 
3 19 20 21 
3 19 21 22 
3 23 24 25 
3 23 25 26 
3 25 24 27 
3 25 27 28 
3 28 29 30 
3 22 21 14 
3 22 14 13 
3 26 25 16 
3 26 16 15 
3 25 28 17 
3 25 17 16 
3 17 28 30 
3 17 30 18 
3 31 32 23 
3 31 23 20 
3 19 31 20 
3 5 4 10 
3 0 7 33 
3 0 33 34 
3 6 33 7 
3 28 27 29 
3 1 0 34 
3 1 34 35 
3 1 35 36 
3 1 36 4 
3 7 3 8 
3 37 12 11 
3 37 11 10 
3 15 5 11 
3 15 11 14 
3 18 38 9 
3 18 9 8 
3 20 26 21 
3 32 39 24 
3 32 24 23 
3 24 39 40 
3 24 40 27 
3 41 42 30 
3 41 30 29 
3 21 26 15 
3 21 15 14 
3 42 38 18 
3 42 18 30 
3 23 26 20 
3 43 10 4 
3 43 4 36 
3 10 43 37 
3 0 3 7 
3 44 29 27 
3 44 27 40 
3 29 44 41 
