ply
format ascii 1.0
comment VCGLIB generated
element vertex 38
property float x
property float y
property float z
property float nx
property float ny
property float nz
property float texture_u
property float texture_v
element face 72
property list uchar int vertex_indices
end_header
0.4482497 -1 0.2252677 0.7552671 -0.5593951 0.3415389 0.143834 0.145215
0.3545819 -1 0.3545817 0.5863454 -0.5590176 0.5862581 0.216643 0.213309
0.2119238 -1 0.4544721 0.3660502 -0.5584681 0.7443929 0.213309 0.211928
0.08682409 -1 0.4924039 0.128338 -0.5569001 0.8206044 0.215262 0.143834
-0.04370474 -1 0.4995463 -0.1076257 -0.5580018 0.8228309 0.286691 0.213309
-0.1710101 -1 0.4698463 -0.3223802 -0.5583415 0.764412 0.358119 0.216643
-0.3396753 -1 0.3740386 -0.5628732 -0.561252 0.6067702 0.288072 0.284738
-0.4544721 -1 0.2119238 -0.7452447 -0.5587065 0.3639471 0.426214 0.143834
-0.4924039 -1 0.08682409 -0.8197705 -0.5569971 0.1331565 0.429548 0.215262
-0.4995463 -1 -0.04370474 -0.8265262 -0.5576875 -0.07641434 0.500977 0.284738
-0.4698463 -1 -0.1710101 -0.8826905 -0.3184021 -0.3456553 0.430929 0.284738
-0.4023226 -1 -0.2996829 -0.1325877 -0.9851043 -0.1094985 0.502358 0.213309
-0.2755617 -1 -0.4192124 -0.4899907 -0.3202817 -0.8107582 0.499023 0.211928
-0.1155643 -1 -0.4881785 -0.1937088 -0.5589063 -0.8062882 0.640500 0.215262
0.04370474 -1 -0.4995463 0.07588564 -0.5594242 -0.8254005 0.641881 0.284738
0.2252677 -1 -0.4482497 0.3542677 -0.5593013 -0.7494509 0.645215 0.213309
0.3545817 -1 -0.3545819 0.5862581 -0.5590176 -0.5863454 0.711928 0.143834
0.4544721 -1 -0.2119238 0.7527714 -0.5611602 -0.3441432 0.715262 0.145215
0.5037304 -1 0.02021342 0.8259844 -0.5636024 -0.01011099 0.786691 0.284738
0.4995877 1 0.06756566 0.8116801 0.5636023 0.1533882 0.788072 0.215262
0.4107675 1 0.2876224 0.6864222 0.5606875 0.4630919 0.784738 0.143834
0.299683 1 0.4023225 0.4857998 0.5588976 0.6720358 0.858119 0.213309
0.1440076 1 0.4805571 0.2388302 0.5592895 0.7938233 0.927595 0.284738
-0.02903749 1 0.5008295 -0.01179043 0.5591594 0.8289763 0.999023 0.215262
-0.1710101 1 0.4698463 -0.2439861 0.5571276 0.7937756 0.859500 0.143834
-0.2755618 1 0.4192124 -0.4541473 0.558846 0.6938598 0.000977 0.072405
-0.4107675 1 0.2876224 -0.6733467 0.5595702 0.4832034 0.000977 0.070452
-0.4805571 1 0.1440076 -0.7940386 0.558434 0.2401131 0.141881 0.070452
-0.5 1 6.123234e-17 -0.8301259 0.5570546 0.02410915 0.073786 0.072405
-0.4881785 1 -0.1155643 -0.9192225 0.3190173 -0.2307772 0.072405 0.069071
-0.4192124 1 -0.2755618 -0.1460326 0.9851528 -0.09026836 0.143834 0.070452
-0.2876224 1 -0.4107675 -0.5920393 0.3199721 -0.7396671 0.215262 0.141881
-0.1710101 1 -0.4698463 -0.2991583 0.5569002 -0.7748332 0.284738 0.070452
-0.04370474 1 -0.4995463 -0.0633161 0.558104 -0.8273517 0.284738 0.072405
0.1155643 1 -0.4881785 0.2103531 0.5593013 -0.8018315 0.286691 0.140500
0.2876224 1 -0.4107675 0.4724256 0.5594242 -0.6810718 0.286691 0.070452
0.4023225 1 -0.299683 0.6720358 0.5588977 -0.4857998 0.427595 0.070452
0.4805571 1 -0.1440076 0.8018963 0.5598431 -0.208658 0.356166 0.000977
3 11 18 0 
3 11 0 1 
3 11 1 2 
3 11 2 3 
3 11 3 4 
3 11 4 5 
3 11 5 6 
3 11 6 7 
3 11 7 8 
3 11 8 9 
3 11 9 10 
3 11 12 13 
3 11 13 14 
3 11 14 15 
3 11 15 16 
3 11 16 17 
3 11 17 18 
3 30 20 19 
3 30 21 20 
3 30 22 21 
3 30 23 22 
3 30 24 23 
3 30 25 24 
3 30 26 25 
3 30 27 26 
3 30 28 27 
3 30 29 28 
3 30 32 31 
3 30 33 32 
3 30 34 33 
3 30 35 34 
3 30 36 35 
3 30 37 36 
3 30 19 37 
3 18 19 0 
3 0 19 20 
3 0 20 1 
3 1 20 21 
3 1 21 2 
3 2 21 22 
3 2 22 3 
3 3 22 23 
3 3 23 4 
3 4 23 24 
3 4 24 5 
3 5 24 25 
3 5 25 6 
3 6 25 26 
3 6 26 7 
3 7 26 27 
3 7 27 8 
3 8 27 28 
3 8 28 9 
3 9 28 29 
3 9 29 10 
3 10 29 30 
3 10 30 11 
3 11 30 31 
3 11 31 12 
3 12 31 32 
3 12 32 13 
3 13 32 33 
3 13 33 14 
3 14 33 34 
3 14 34 15 
3 15 34 35 
3 15 35 16 
3 16 35 36 
3 16 36 17 
3 17 36 37 
3 17 37 18 
3 18 37 19 
