ply
format ascii 1.0
comment VCGLIB generated
element vertex 12
property float x
property float y
property float z
property float nx
property float ny
property float nz
property float texture_u
property float texture_v
element face 4
property list uchar int vertex_indices
end_header
0.5 0.5 0.5 0.5773503 0.5773503 0.5773503 0.497642 0.999023
-0.5 0.5 -0.5 -0.5773503 0.5773503 -0.5773503 0.000977 0.999023
-0.5 -0.5 0.5 -0.5773503 -0.5773503 0.5773503 0.000977 0.502358
0.5 -0.5 -0.5 0.5773503 -0.5773503 -0.5773503 0.499023 0.997642
0.5 0.5 0.5 0.5773503 0.5773503 0.5773503 0.002358 0.500977
-0.5 -0.5 0.5 -0.5773503 -0.5773503 0.5773503 0.499023 0.500977
0.5 0.5 0.5 0.5773503 0.5773503 0.5773503 0.997642 0.999023
0.5 -0.5 -0.5 0.5773503 -0.5773503 -0.5773503 0.500977 0.999023
-0.5 0.5 -0.5 -0.5773503 0.5773503 -0.5773503 0.500977 0.502358
0.5 -0.5 -0.5 0.5773503 -0.5773503 -0.5773503 0.502358 0.500977
-0.5 -0.5 0.5 -0.5773503 -0.5773503 0.5773503 0.999023 0.500977
-0.5 0.5 -0.5 -0.5773503 0.5773503 -0.5773503 0.999023 0.997642
3 0 1 2 
3 4 5 3 
3 6 7 8 
3 9 10 11 
